<?xml version="1.0" encoding="UTF-8" standalone="no"?>
<!-- Created with Inkscape (http://www.inkscape.org/) -->

<svg
   xmlns:dc="http://purl.org/dc/elements/1.1/"
   xmlns:cc="http://creativecommons.org/ns#"
   xmlns:rdf="http://www.w3.org/1999/02/22-rdf-syntax-ns#"
   xmlns:svg="http://www.w3.org/2000/svg"
   xmlns="http://www.w3.org/2000/svg"
   xmlns:sodipodi="http://sodipodi.sourceforge.net/DTD/sodipodi-0.dtd"
   xmlns:inkscape="http://www.inkscape.org/namespaces/inkscape"
   width="210mm"
   height="297mm"
   viewBox="0 0 210 297"
   version="1.1"
   id="svg8"
   inkscape:version="0.92.3 (2405546, 2018-03-11)"
   sodipodi:docname="Logotest.svg">
  <defs
     id="defs2">
    <inkscape:path-effect
       effect="spiro"
       id="path-effect22"
       is_visible="true" />
    <inkscape:path-effect
       effect="spiro"
       id="path-effect14"
       is_visible="true" />
  </defs>
  <sodipodi:namedview
     id="base"
     pagecolor="#ffffff"
     bordercolor="#666666"
     borderopacity="1.0"
     inkscape:pageopacity="0.0"
     inkscape:pageshadow="2"
     inkscape:zoom="0.98994949"
     inkscape:cx="296.39115"
     inkscape:cy="853.03379"
     inkscape:document-units="mm"
     inkscape:current-layer="layer1"
     showgrid="false"
     inkscape:window-width="1366"
     inkscape:window-height="697"
     inkscape:window-x="0"
     inkscape:window-y="0"
     inkscape:window-maximized="1" />
  <metadata
     id="metadata5">
    <rdf:RDF>
      <cc:Work
         rdf:about="">
        <dc:format>image/svg+xml</dc:format>
        <dc:type
           rdf:resource="http://purl.org/dc/dcmitype/StillImage" />
        <dc:title></dc:title>
      </cc:Work>
    </rdf:RDF>
  </metadata>
  <g
     inkscape:label="Camada 1"
     inkscape:groupmode="layer"
     id="layer1">
    <path
       style="fill:none;stroke:#000000;stroke-width:0.26458332px;stroke-linecap:butt;stroke-linejoin:miter;stroke-opacity:1"
       d="m 64.144686,50.042955 74.568194,0.267272 -74.568194,-0.267272 v 0"
       id="path10"
       inkscape:connector-curvature="0" />
    <path
       style="fill:none;stroke:#000000;stroke-width:0.27778253px;stroke-linecap:butt;stroke-linejoin:miter;stroke-opacity:1"
       d="M 146.46408,50.310022 64.144307,50.04316"
       id="path12"
       inkscape:connector-curvature="0"
       inkscape:path-effect="#path-effect14"
       inkscape:original-d="M 146.46408,50.310022 64.144307,50.04316" />
    <path
       style="fill:none;stroke:#000000;stroke-width:0.26458332px;stroke-linecap:butt;stroke-linejoin:miter;stroke-opacity:1"
       d="m 142.45465,44.163028 c 5.28082,6.93311 8.57657,15.360974 9.39986,24.037221 0.82329,8.676248 -0.82848,17.573582 -4.71103,25.376202 -3.88255,7.802619 -9.98366,14.485979 -17.40107,19.061689 -7.41741,4.57571 -16.12777,7.02938 -24.84293,6.99815 C 96.184312,119.60505 87.491764,117.089 80.107351,112.46022 72.722938,107.83145 66.669893,101.10453 62.843388,93.274268 59.016882,85.444011 57.428955,76.535061 58.314442,67.86494 c 0.885486,-8.67012 4.241601,-17.074132 9.572017,-23.969184 1.313303,-1.698796 2.743205,-3.307436 4.276312,-4.81085 9.481983,-9.298339 23.045809,-14.27645 36.291619,-13.319527 13.2458,0.956923 25.95324,7.83296 34.00026,18.397649 z"
       id="path20"
       inkscape:connector-curvature="0"
       inkscape:path-effect="#path-effect22"
       inkscape:original-d="m 142.45465,44.163028 c 23.43036,1.69297 -49.711863,-0.178446 -74.568191,-0.267272 -24.856329,-0.08883 2.851139,-3.207499 4.276312,-4.81085 1.425173,-1.603354 46.861519,3.385151 70.291879,5.078122 z" />
    <path
       style="fill:#ff00ff;stroke-width:1.01015258"
       d="M 377.91046,450.13607 C 309.57687,442.41563 250.73155,394.72493 229.4765,329.83903 c -6.54678,-19.98557 -8.13866,-30.8024 -8.13866,-55.30237 0,-18.69928 0.32484,-23.32269 2.33684,-33.2602 2.84592,-14.05632 7.94566,-29.57968 13.91187,-42.34703 l 4.466,-9.55698 12.87565,0.65668 c 7.0816,0.36117 77.01872,0.65852 155.41581,0.66077 l 142.54016,0.004 4.17058,9.10419 c 5.76067,12.57526 10.70852,27.80297 13.4773,41.47827 2.012,9.93751 2.33683,14.56092 2.33683,33.2602 0,24.38102 -1.59683,35.33194 -8.00419,54.89188 -25.8556,78.93016 -104.91683,129.97627 -186.95423,120.70753 z"
       id="path24"
       inkscape:connector-curvature="0"
       transform="scale(0.26458333)" />
    <path
       style="fill:#ff00ff;stroke-width:1.01015258"
       d=""
       id="path26"
       inkscape:connector-curvature="0"
       transform="scale(0.26458333)" />
    <path
       style="fill:#ececec;stroke-width:1.01015258"
       d="m 368.81909,448.38135 c -39.72143,-7.33936 -71.5652,-24.24467 -98.648,-52.37055 -23.44339,-24.34631 -38.67176,-53.21257 -45.97757,-87.15314 -2.70212,-12.55323 -2.68497,-56.2374 0.027,-68.66619 2.63327,-12.06833 8.8077,-30.47022 13.90441,-41.43984 l 4.32703,-9.31305 6.00561,0.62771 c 3.30308,0.34524 73.10144,0.63626 155.10747,0.64672 l 149.10185,0.019 3.90703,8.81982 c 4.91089,11.08595 10.96929,29.44297 13.41236,40.63962 2.71193,12.42879 2.72908,56.11296 0.027,68.66619 -9.5737,44.47651 -35.00951,83.41962 -71.42977,109.36145 -18.34855,13.06951 -43.82351,24.09423 -67.62089,29.26409 -14.02202,3.04621 -47.87026,3.53541 -62.14345,0.89815 z"
       id="path28"
       inkscape:connector-curvature="0"
       transform="scale(0.26458333)" />
    <flowRoot
       xml:space="preserve"
       id="flowRoot30"
       style="font-style:normal;font-weight:normal;font-size:74.66666412px;line-height:1.25;font-family:sans-serif;letter-spacing:0px;word-spacing:0px;fill:#000000;fill-opacity:1;stroke:none"
       transform="scale(0.26458333)"><flowRegion
         id="flowRegion32"
         style="font-size:74.66666412px"><rect
           id="rect34"
           width="303.04584"
           height="154.55333"
           x="247.48738"
           y="210.35194"
           style="font-size:74.66666412px" /></flowRegion><flowPara
         id="flowPara36"
         style="font-size:85.33333588px;fill:#ff00ff">HIgirl ! </flowPara></flowRoot>  </g>
</svg>
